<svg width="45" height="47" viewBox="0 0 45 47" fill="none" xmlns="http://www.w3.org/2000/svg">
<g filter="url(#filter0_d)">
<path d="M14.5586 40.6522H14.45C9.16048 40.0874 4.19682 33.4185 4.00131 29.6713C3.99258 29.4936 4.02763 29.3165 4.10338 29.1555C4.17914 28.9945 4.29328 28.8546 4.43577 28.7481C7.05337 26.7713 11.2676 23.7301 13.2987 22.2313C11.3328 20.7107 7.25974 17.4848 4.63127 15.5189C4.41406 15.3542 4.26673 15.1138 4.21854 14.8455C3.81667 12.4994 5.08745 10.2402 6.17359 8.76309C8.26985 5.93912 11.6043 3.67995 14.1676 3.39755C14.3549 3.37629 14.5446 3.40417 14.7179 3.47845C14.8912 3.55272 15.0422 3.67082 15.156 3.82114C17.4152 6.80803 19.8264 9.75148 22.1507 12.608L22.6178 13.1837C24.2361 11.0983 27.8095 6.49305 29.8298 3.82114C29.9545 3.65852 30.1226 3.53448 30.3148 3.46337C30.507 3.39226 30.7154 3.37697 30.9159 3.41927C35.4125 4.50541 40.7672 10.1534 40.9736 14.0743C40.9823 14.252 40.9473 14.4291 40.8715 14.5901C40.7958 14.7511 40.6816 14.891 40.5391 14.9975C37.8889 17.0069 33.5335 20.4283 31.5241 22.0249C35.3908 25.0769 38.5732 27.5425 40.5391 29.0305C40.6816 29.137 40.7958 29.2769 40.8715 29.4379C40.9473 29.5989 40.9823 29.776 40.9736 29.9537C40.7672 33.929 34.8477 40.0657 30.7638 40.5219C30.5934 40.5409 30.421 40.5194 30.2605 40.459C30.1 40.3985 29.9562 40.301 29.8406 40.1743C28.1354 38.3061 24.2253 33.2665 22.4766 30.9964L15.3949 40.2286C15.296 40.3572 15.1696 40.462 15.0248 40.5353C14.8801 40.6086 14.7208 40.6485 14.5586 40.6522ZM6.23876 30.1601C6.80356 32.9406 10.5182 37.5784 14.1024 38.393L21.6403 28.5526C21.7414 28.4212 21.8714 28.3146 22.0201 28.2412C22.1689 28.1678 22.3324 28.1294 22.4983 28.129C22.666 28.1277 22.8317 28.1653 22.9825 28.2388C23.1332 28.3123 23.2649 28.4197 23.3672 28.5526C23.4215 28.6286 28.711 35.5256 31.0788 38.2627C34.0874 37.4807 38.1279 33.0384 38.747 30.3773C36.5747 28.7264 33.3163 26.1305 29.2867 23.0024L29.1346 22.8721C29.0058 22.7704 28.9017 22.6409 28.8301 22.4932C28.7585 22.3455 28.7213 22.1836 28.7213 22.0195C28.7213 21.8553 28.7585 21.6934 28.8301 21.5457C28.9017 21.398 29.0058 21.2685 29.1346 21.1668C29.1998 21.1668 35.1519 16.3987 38.7687 13.6507C38.1822 11.0114 34.5219 6.91665 31.1657 5.72189C28.3961 9.37133 23.5627 15.4972 23.5627 15.5949C23.4616 15.7229 23.3329 15.8265 23.1862 15.898C23.0396 15.9694 22.8787 16.0069 22.7155 16.0077C22.5533 16.0082 22.3929 15.9724 22.2463 15.9029C22.0997 15.8333 21.9706 15.7318 21.8683 15.6058L20.5432 13.9766C18.371 11.2829 16.0683 8.54586 13.9069 5.66759C11.505 6.49647 9.40829 8.02928 7.8897 10.0665C6.9367 11.1919 6.38294 12.6011 6.31479 14.0743C9.89906 16.7897 15.7208 21.4058 15.7751 21.4492C15.9075 21.5538 16.0137 21.6877 16.0853 21.8404C16.157 21.9931 16.1921 22.1604 16.1878 22.329C16.1836 22.4976 16.1402 22.663 16.061 22.8119C15.9819 22.9608 15.8691 23.0893 15.7316 23.1871C15.6773 23.2305 9.82303 27.4121 6.23876 30.1601Z" fill="#32333D"/>
<path d="M29.1657 21.1008C29.1657 21.1008 36.0518 15.7244 39.6035 13.0417C39.4406 9.78323 34.1728 4.24391 30.393 3.82031C27.6994 7.38286 22.323 14.269 22.323 14.269C22.323 14.269 16.9466 7.35027 14.2638 3.82031C10.5166 4.24391 5.21627 9.75065 5.08594 13.0417C8.64848 15.7244 15.5346 21.1008 15.5346 21.1008C15.5346 21.1008 8.64848 26.5315 5.08594 29.236C5.25972 32.4945 10.571 38.0338 14.3073 38.4574C16.9466 34.8948 22.323 27.987 22.323 27.987C22.323 27.987 27.6994 34.8731 30.393 38.4357C34.1294 38.0121 39.4406 32.5053 39.6035 29.2143C36.0518 26.5207 29.1657 21.1551 29.1657 21.1551V21.1008Z" fill="white"/>
<path d="M30.3945 39.2719C30.2681 39.2719 30.1434 39.2424 30.0302 39.1859C29.9171 39.1293 29.8187 39.0472 29.7429 38.946C27.6357 36.1655 23.8342 31.267 22.3245 29.3337C20.8148 31.2453 17.035 36.1655 14.8627 38.946C14.7788 39.0595 14.6661 39.1485 14.5362 39.2039C14.4064 39.2593 14.2641 39.279 14.1241 39.261C10.1814 38.8483 4.42489 33.0265 4.22939 29.2793C4.22333 29.1458 4.24982 29.0127 4.30658 28.8916C4.36334 28.7705 4.44867 28.665 4.55523 28.5842C7.34661 26.4771 12.2451 22.6322 14.1676 21.1116C12.2343 19.6018 7.34661 15.8003 4.55523 13.6823C4.44883 13.6039 4.36343 13.5004 4.30659 13.381C4.24975 13.2617 4.22324 13.1301 4.22939 12.9981C4.42489 9.25089 10.1814 3.46175 14.1676 3.00557C14.3016 2.99658 14.4356 3.02176 14.5572 3.07875C14.6788 3.13574 14.7839 3.22268 14.8627 3.33141C17.035 6.11194 20.8148 10.9996 22.3245 12.9438C23.8342 10.9996 27.6357 6.11194 29.7429 3.33141C29.8255 3.21594 29.9377 3.12478 30.0676 3.06746C30.1975 3.01014 30.3404 2.98877 30.4814 3.00557C34.4676 3.45089 40.2567 9.24003 40.4196 12.9872C40.43 13.1187 40.4065 13.2506 40.3514 13.3704C40.2962 13.4902 40.2113 13.5939 40.1047 13.6715C37.2915 15.8438 32.3496 19.6453 30.4489 21.1224C32.3496 22.6104 37.2915 26.4554 40.1047 28.5734C40.2114 28.6534 40.2962 28.759 40.3513 28.8805C40.4063 29.002 40.4298 29.1355 40.4196 29.2685C40.235 33.0157 34.4676 38.7939 30.4814 39.2501L30.3945 39.2719ZM22.3245 27.194C22.4482 27.1943 22.5702 27.2229 22.6813 27.2775C22.7923 27.3321 22.8895 27.4112 22.9653 27.5089C23.0196 27.5741 28.005 33.9606 30.7421 37.5666C34.0005 36.8498 38.2256 32.3423 38.747 29.6052C35.1301 26.8681 28.7327 21.8719 28.6567 21.8175C28.5604 21.7411 28.4829 21.6436 28.4301 21.5325C28.3774 21.4214 28.3509 21.2997 28.3526 21.1767C28.3508 21.0427 28.3769 20.9097 28.4293 20.7863C28.4816 20.6629 28.5591 20.5517 28.6567 20.4599C28.7327 20.4056 35.1736 15.4093 38.747 12.6722C38.2256 9.92429 34.0331 5.42767 30.7421 4.69995C28.005 8.3168 23.0196 14.7033 22.9653 14.7685C22.8858 14.8605 22.7874 14.9342 22.6768 14.9848C22.5663 15.0354 22.4461 15.0615 22.3245 15.0615C22.2029 15.0615 22.0828 15.0354 21.9722 14.9848C21.8616 14.9342 21.7632 14.8605 21.6837 14.7685C21.6294 14.7033 16.6548 8.3168 13.9069 4.69995C10.6485 5.42767 6.43425 9.92429 5.91291 12.6722C9.5189 15.4093 15.9489 20.3838 15.9489 20.4599C16.046 20.5361 16.1245 20.6334 16.1785 20.7444C16.2325 20.8554 16.2605 20.9772 16.2605 21.1007C16.2605 21.2241 16.2325 21.346 16.1785 21.457C16.1245 21.568 16.046 21.6653 15.9489 21.7415C15.8837 21.7958 9.43201 26.8572 5.86946 29.6052C6.43425 32.3314 10.6268 36.8498 13.9069 37.5666C16.6548 33.9606 21.6294 27.5741 21.6837 27.5089C21.7596 27.4112 21.8567 27.3321 21.9677 27.2775C22.0788 27.2229 22.2008 27.1943 22.3245 27.194Z" fill="#32333D"/>
</g>
<defs>
<filter id="filter0_d" x="-4" y="-2" width="52" height="52" filterUnits="userSpaceOnUse" color-interpolation-filters="sRGB">
<feFlood flood-opacity="0" result="BackgroundImageFix"/>
<feColorMatrix in="SourceAlpha" type="matrix" values="0 0 0 0 0 0 0 0 0 0 0 0 0 0 0 0 0 0 127 0"/>
<feOffset dy="2"/>
<feGaussianBlur stdDeviation="2"/>
<feColorMatrix type="matrix" values="0 0 0 0 0 0 0 0 0 0 0 0 0 0 0 0 0 0 0.12 0"/>
<feBlend mode="normal" in2="BackgroundImageFix" result="effect1_dropShadow"/>
<feBlend mode="normal" in="SourceGraphic" in2="effect1_dropShadow" result="shape"/>
</filter>
</defs>
</svg>
