<svg width="100" height="92" viewBox="0 0 100 92" fill="none" xmlns="http://www.w3.org/2000/svg">
<path d="M76.7106 46.9902C76.8386 44.5894 76.6503 38.1904 75.7515 36.0471C73.8281 31.4388 71.373 26.4275 69.2532 21.8932C69.266 21.7083 69.8419 15.4598 69.6818 14.9409C69.6391 14.867 72.8171 11.1587 72.4605 9.05733C72.237 7.8821 71.7008 6.79059 70.9076 5.89612C70.1145 5.00166 69.0932 4.33684 67.95 3.97069C63.1942 2.63441 58.3534 8.05199 57.0602 12.368C56.2253 16.2508 55.6466 20.1817 55.3277 24.1354C55.2978 24.8428 54.3139 26.6926 53.6714 26.5114C51.3226 25.7957 48.7951 25.8746 46.482 26.7357C44.1689 27.5968 42.2001 29.1919 40.8817 31.2728C37.9211 30.596 25.4255 29.5871 19.0713 34.5572C16.1921 37.6788 14.5978 40.8868 15.7357 43.9964C14.8254 44.8992 14.1839 46.0344 13.8831 47.2746C13.7211 50.4445 13.5846 52.9685 14.5154 54.5806C12.4942 56.9111 13.0706 59.4968 12.7591 60.8205C12.979 62.4091 17.5323 67.0176 28.4222 61.381C29.7669 60.6046 36.6954 56.9397 38.4691 56.665C39.3934 56.5061 43.3789 61.7184 44.4078 62.4653C47.0667 63.9243 50.076 64.6449 53.1231 64.5524C55.9535 64.6293 58.7809 64.2303 61.4861 63.3723C62.0893 64.3909 62.9123 65.2625 63.8962 65.9248C65.1098 66.6406 66.5085 66.9904 67.9241 66.932C69.7849 66.9334 71.6246 66.5057 73.2987 65.6826C75.7598 64.8731 76.8504 63.001 78.2078 60.3834C80.1308 56.8476 81.3363 49.8609 76.7106 46.9902Z" fill="white"/>
<path d="M62.6077 51.0706L62.5181 51.1223C62.3643 51.1962 62.1976 51.2392 62.0276 51.2488C61.8576 51.2585 61.6877 51.2346 61.5276 51.1786C61.3675 51.1226 61.2204 51.0355 61.0947 50.9224C60.9691 50.8093 60.8674 50.6724 60.7955 50.5195C60.4336 49.6658 59.8908 48.9009 59.204 48.2768C58.5171 47.6527 57.7022 47.1838 56.8144 46.902C52.6178 45.6373 47.3564 48.6355 47.3116 48.6614C47.0144 48.833 46.6619 48.8807 46.3316 48.794C46.0014 48.7073 45.7204 48.4933 45.5506 48.1991C45.3807 47.9049 45.3359 47.5546 45.4259 47.2252C45.516 46.8959 45.7335 46.6145 46.0307 46.4429C46.3146 46.279 52.2911 42.8285 57.572 44.4532C58.8026 44.8299 59.9354 45.4653 60.8943 46.3166C61.8531 47.1678 62.6157 48.2153 63.1306 49.3883C63.274 49.6804 63.2997 50.0169 63.2026 50.3294C63.1055 50.6418 62.8928 50.9068 62.6077 51.0706Z" fill="#32333D"/>
<path d="M75.145 51.8346C74.9142 51.9698 74.6476 52.0307 74.3819 52.0092C74.1162 51.9877 73.8644 51.8847 73.6612 51.7144C73.4581 51.5441 73.3135 51.3149 73.2474 51.0584C73.1813 50.8018 73.197 50.5304 73.2922 50.2816C75.3181 45.3821 75.3385 39.9042 73.3489 35.025C72.4266 33.0136 71.5257 31.2462 70.706 29.6883C67.5593 23.6171 65.4587 19.5646 69.9279 12.8825C71.5863 10.4066 71.5883 8.0982 69.9382 6.7239C68.0042 5.0994 64.0938 5.0893 60.7086 8.26636C54.4677 14.1571 57.2946 26.5065 57.3543 26.61C57.4089 26.8391 57.3989 27.0793 57.3254 27.3042C57.2518 27.5291 57.1176 27.7301 56.9375 27.885C56.7573 28.04 56.5382 28.1429 56.3041 28.1826C56.07 28.2222 55.8301 28.1971 55.6105 28.1098C53.2991 27.26 50.7635 27.1957 48.3976 27.927C46.0316 28.6583 43.9677 30.1441 42.5262 32.1539C42.3806 32.3534 42.181 32.5077 41.951 32.5986C41.721 32.6894 41.4703 32.713 41.2284 32.6665C41.0961 32.6444 26.6495 30.1194 19.7873 35.9349C18.5454 37.0205 17.5753 38.3796 16.9558 39.9022C16.3362 41.4247 16.0845 43.0679 16.2211 44.6987C16.216 45.0299 16.0859 45.3482 15.8565 45.5902C15.6271 45.8323 15.3153 45.9804 14.9832 46.005C14.6478 46.0112 14.3244 45.8873 14.0813 45.6595C13.8383 45.4318 13.6947 45.118 13.681 44.7848C13.5281 42.7623 13.8532 40.728 14.6303 38.8447C15.4074 36.9613 16.615 35.2811 18.1564 33.9382C25.0484 28.1054 37.687 29.4656 40.955 29.9847C42.536 27.9968 44.6438 26.4871 47.0371 25.6284C49.4304 24.7698 52.0125 24.5969 54.4876 25.1297C53.864 21.0132 53.2466 11.7661 58.9305 6.39414C63.4148 2.18805 68.8088 2.38682 71.6009 4.73852C73.6309 6.42589 74.961 9.93724 72.0903 14.316C68.4684 19.7398 69.9819 22.6719 73.0155 28.5127C73.9121 30.0657 74.7788 31.9119 75.7202 33.9912C77.9894 39.492 77.9836 45.6795 75.7043 51.216C75.5946 51.4796 75.397 51.6982 75.145 51.8346Z" fill="#32333D"/>
<path d="M73.6888 66.7389C72.6789 67.3213 71.5964 67.7672 70.4701 68.0648C69.0847 68.4947 67.6201 68.5963 66.194 68.3614C64.7679 68.1265 63.42 67.5617 62.2585 66.7123C61.225 65.9323 60.3897 64.9227 59.8185 63.7629C59.7396 63.6132 59.6919 63.4491 59.6782 63.2801C59.6644 63.1112 59.6849 62.941 59.7385 62.7795C59.792 62.618 59.8775 62.4686 59.9898 62.3401C60.1022 62.2115 60.2392 62.1065 60.3926 62.0313C60.7022 61.8779 61.0592 61.8518 61.3857 61.9587C61.7123 62.0656 61.9821 62.2968 62.1365 62.602C62.5267 63.4138 63.1053 64.1204 63.8251 64.664C64.6846 65.2678 65.6741 65.6654 66.7168 65.826C67.7595 65.9865 68.8275 65.9058 69.8381 65.59C72.3987 64.8429 74.6459 63.275 76.2286 61.1314C79.7011 56.622 79.7883 50.8726 76.422 48.32C76.0653 48.0308 75.6676 47.7954 75.2416 47.6211C74.9268 47.4915 74.6777 47.2425 74.5488 46.9287C74.4199 46.6149 74.4219 46.262 74.5541 45.9474C74.6891 45.6309 74.9438 45.379 75.2627 45.2466C75.5816 45.1142 75.9391 45.1118 76.2574 45.2401C76.8719 45.4901 77.4503 45.8191 77.9779 46.2188C82.4372 49.5602 82.5913 57.0043 78.2564 62.6425C77.0204 64.2944 75.4675 65.687 73.6888 66.7389Z" fill="#32333D"/>
<path d="M15.1547 55.6839L15.0202 55.7616C14.6983 55.8755 14.3453 55.8586 14.0382 55.7145C13.7311 55.5704 13.4948 55.3108 13.3808 54.9924C11.7284 50.5431 12.0612 46.8409 14.2766 44.1222C20.1162 36.9842 36.4263 38.9066 37.1926 38.9572C37.3732 38.9601 37.5509 39.0007 37.7141 39.0765C37.8774 39.1522 38.0225 39.2613 38.1401 39.3968C38.2577 39.5323 38.3452 39.6911 38.3969 39.8629C38.4486 40.0347 38.4634 40.2157 38.4403 40.3943C38.4171 40.5728 38.3566 40.7448 38.2627 40.8992C38.1687 41.0536 38.0434 41.1869 37.8948 41.2905C37.7462 41.3942 37.5777 41.4658 37.4001 41.5008C37.2225 41.5357 37.0399 41.5333 36.864 41.4936C36.6719 41.5059 21.1943 39.7141 16.3237 45.7011C14.6654 47.7629 14.4649 50.5211 15.7245 54.152C15.8251 54.4317 15.8231 54.7385 15.7189 55.0187C15.6147 55.2988 15.4149 55.5344 15.1547 55.6839Z" fill="#32333D"/>
<path d="M66.5507 62.2055C50.3972 70.664 40.9855 61.505 38.426 58.3486C34.4388 60.5519 21.2543 67.3555 15.2198 64.3911C14.3436 63.9745 13.5927 63.3384 13.0402 62.5447C12.4876 61.7509 12.1523 60.8266 12.0669 59.8616C11.9061 58.7597 12 57.6336 12.3413 56.5687C12.6825 55.5038 13.2623 54.5281 14.0366 53.7154C19.5775 47.7162 34.9525 48.0881 35.6014 48.1079C35.7708 48.1136 35.9372 48.1526 36.0909 48.2224C36.2447 48.2923 36.3829 48.3917 36.4975 48.515C36.6122 48.6383 36.7011 48.7831 36.7593 48.9412C36.8174 49.0992 36.8436 49.2673 36.8363 49.4359C36.829 49.6046 36.7884 49.7704 36.7169 49.9241C36.6453 50.0777 36.5441 50.216 36.4192 50.3312C36.2942 50.4464 36.1479 50.5361 35.9885 50.5953C35.8292 50.6546 35.66 50.6821 35.4905 50.6763C35.3433 50.6628 20.6705 50.2995 15.9301 55.4422C15.4167 55.9834 15.0323 56.6324 14.8061 57.3403C14.5799 58.0482 14.5176 58.7966 14.624 59.529C14.6378 60.0763 14.7972 60.609 15.0859 61.0728C15.3747 61.5365 15.7824 61.9148 16.2678 62.169C20.9382 64.4617 33.5315 58.1178 38.0203 55.6445C38.3107 55.4813 38.6517 55.4337 38.974 55.5113C39.2964 55.5889 39.5758 55.786 39.7557 56.0624C40.0716 56.6097 48.2924 68.8818 65.2784 60.0018C65.5756 59.8302 65.9281 59.7825 66.2583 59.8692C66.5886 59.9559 66.8696 60.1698 67.0394 60.464C67.2093 60.7582 67.2541 61.1085 67.164 61.4379C67.074 61.7672 66.8564 62.0487 66.5593 62.2203L66.5507 62.2055Z" fill="#32333D"/>
</svg>
