<svg width="100" height="92" viewBox="0 0 100 92" fill="none" xmlns="http://www.w3.org/2000/svg">
<path d="M22.5726 46.9902C22.4446 44.5894 22.6329 38.1904 23.5317 36.0471C25.4552 31.4388 27.9102 26.4275 30.03 21.8932C30.0172 21.7083 29.4413 15.4598 29.6014 14.9409C29.6441 14.867 26.4661 11.1587 26.8227 9.05733C27.0462 7.8821 27.5824 6.79059 28.3756 5.89612C29.1687 5.00166 30.19 4.33684 31.3332 3.97069C36.089 2.63441 40.9298 8.05199 42.223 12.368C43.0579 16.2508 43.6366 20.1817 43.9555 24.1354C43.9854 24.8428 44.9693 26.6926 45.6118 26.5114C47.9606 25.7957 50.4881 25.8746 52.8012 26.7357C55.1143 27.5968 57.0831 29.1919 58.4015 31.2728C61.3621 30.596 73.8577 29.5871 80.2119 34.5572C83.0911 37.6788 84.6854 40.8868 83.5475 43.9964C84.4578 44.8992 85.0993 46.0344 85.4001 47.2746C85.5621 50.4445 85.6986 52.9685 84.7678 54.5806C86.789 56.9111 86.2126 59.4968 86.5241 60.8205C86.3042 62.4091 81.7509 67.0176 70.861 61.381C69.5163 60.6046 62.5878 56.9397 60.8141 56.665C59.8898 56.5061 55.9043 61.7184 54.8754 62.4653C52.2165 63.9243 49.2072 64.6449 46.1601 64.5524C43.3297 64.6293 40.5023 64.2303 37.7971 63.3723C37.1939 64.3909 36.371 65.2625 35.387 65.9248C34.1734 66.6406 32.7747 66.9904 31.3591 66.932C29.4983 66.9334 27.6586 66.5057 25.9845 65.6826C23.5234 64.8731 22.4328 63.001 21.0754 60.3834C19.1524 56.8476 17.9469 49.8609 22.5726 46.9902Z" fill="white"/>
<path d="M36.6755 51.0706L36.7651 51.1223C36.9189 51.1962 37.0856 51.2392 37.2556 51.2488C37.4256 51.2585 37.5955 51.2346 37.7556 51.1786C37.9157 51.1226 38.0628 51.0355 38.1885 50.9224C38.3141 50.8093 38.4158 50.6724 38.4877 50.5195C38.8496 49.6658 39.3924 48.9009 40.0792 48.2768C40.7661 47.6527 41.581 47.1838 42.4688 46.902C46.6654 45.6373 51.9268 48.6355 51.9716 48.6614C52.2688 48.833 52.6213 48.8807 52.9516 48.794C53.2818 48.7073 53.5628 48.4933 53.7326 48.1991C53.9025 47.9049 53.9473 47.5546 53.8573 47.2252C53.7672 46.8959 53.5497 46.6145 53.2525 46.4429C52.9686 46.279 46.9921 42.8285 41.7112 44.4532C40.4806 44.8299 39.3478 45.4653 38.3889 46.3166C37.4301 47.1678 36.6675 48.2153 36.1526 49.3883C36.0092 49.6804 35.9835 50.0169 36.0806 50.3294C36.1777 50.6418 36.3904 50.9068 36.6755 51.0706Z" fill="#32333D"/>
<path d="M24.1382 51.8346C24.369 51.9698 24.6356 52.0307 24.9013 52.0092C25.167 51.9877 25.4188 51.8847 25.622 51.7144C25.8251 51.5441 25.9697 51.3149 26.0358 51.0584C26.1019 50.8018 26.0862 50.5304 25.991 50.2816C23.9651 45.3821 23.9447 39.9042 25.9344 35.025C26.8566 33.0136 27.7575 31.2462 28.5772 29.6883C31.7239 23.6171 33.8245 19.5646 29.3553 12.8825C27.6969 10.4066 27.6949 8.0982 29.345 6.7239C31.279 5.0994 35.1894 5.0893 38.5746 8.26636C44.8155 14.1571 41.9886 26.5065 41.9289 26.61C41.8743 26.8391 41.8843 27.0793 41.9578 27.3042C42.0314 27.5291 42.1656 27.7301 42.3457 27.885C42.5259 28.04 42.745 28.1429 42.9791 28.1826C43.2132 28.2222 43.4532 28.1971 43.6727 28.1098C45.9842 27.26 48.5197 27.1957 50.8856 27.927C53.2516 28.6583 55.3155 30.1441 56.757 32.1539C56.9026 32.3534 57.1022 32.5077 57.3322 32.5986C57.5622 32.6894 57.813 32.713 58.0548 32.6665C58.1871 32.6444 72.6338 30.1194 79.4959 35.9349C80.7378 37.0205 81.7079 38.3796 82.3274 39.9022C82.947 41.4247 83.1987 43.0679 83.0621 44.6987C83.0672 45.0299 83.1973 45.3482 83.4267 45.5902C83.6561 45.8323 83.9679 45.9804 84.3 46.005C84.6354 46.0112 84.9588 45.8873 85.2019 45.6595C85.4449 45.4318 85.5885 45.118 85.6022 44.7848C85.7551 42.7623 85.43 40.728 84.6529 38.8447C83.8758 36.9613 82.6682 35.2811 81.1268 33.9382C74.2348 28.1054 61.5962 29.4656 58.3282 29.9847C56.7472 27.9968 54.6394 26.4871 52.2461 25.6284C49.8528 24.7698 47.2707 24.5969 44.7956 25.1297C45.4192 21.0132 46.0366 11.7661 40.3527 6.39414C35.8684 2.18805 30.4744 2.38682 27.6823 4.73852C25.6523 6.42589 24.3222 9.93724 27.1929 14.316C30.8148 19.7398 29.3013 22.6719 26.2678 28.5127C25.3712 30.0657 24.5044 31.9119 23.563 33.9912C21.2938 39.492 21.2996 45.6795 23.5789 51.216C23.6886 51.4796 23.8862 51.6982 24.1382 51.8346Z" fill="#32333D"/>
<path d="M25.5944 66.7389C26.6043 67.3213 27.6868 67.7672 28.8131 68.0648C30.1985 68.4947 31.6631 68.5963 33.0892 68.3614C34.5153 68.1265 35.8632 67.5617 37.0247 66.7123C38.0582 65.9323 38.8935 64.9227 39.4647 63.7629C39.5436 63.6132 39.5913 63.4491 39.605 63.2801C39.6188 63.1112 39.5983 62.941 39.5447 62.7795C39.4912 62.618 39.4057 62.4686 39.2934 62.3401C39.181 62.2115 39.044 62.1065 38.8906 62.0313C38.581 61.8779 38.2241 61.8518 37.8975 61.9587C37.5709 62.0656 37.3011 62.2968 37.1467 62.602C36.7565 63.4138 36.1779 64.1204 35.4581 64.664C34.5986 65.2678 33.6091 65.6654 32.5664 65.826C31.5237 65.9865 30.4557 65.9058 29.4451 65.59C26.8845 64.8429 24.6373 63.275 23.0546 61.1314C19.5821 56.622 19.4949 50.8726 22.8612 48.32C23.2179 48.0308 23.6156 47.7954 24.0417 47.6211C24.3564 47.4915 24.6055 47.2425 24.7344 46.9287C24.8633 46.6149 24.8613 46.262 24.7291 45.9474C24.5941 45.6309 24.3394 45.379 24.0205 45.2466C23.7016 45.1142 23.3441 45.1118 23.0258 45.2401C22.4113 45.4901 21.8329 45.8191 21.3053 46.2188C16.8461 49.5602 16.6919 57.0043 21.0268 62.6425C22.2628 64.2944 23.8157 65.687 25.5944 66.7389Z" fill="#32333D"/>
<path d="M84.1285 55.6839L84.263 55.7616C84.5849 55.8755 84.9379 55.8586 85.245 55.7145C85.5521 55.5704 85.7884 55.3108 85.9024 54.9924C87.5548 50.5431 87.222 46.8409 85.0066 44.1222C79.167 36.9842 62.8569 38.9066 62.0907 38.9572C61.91 38.9601 61.7323 39.0007 61.5691 39.0765C61.4058 39.1522 61.2607 39.2613 61.1431 39.3968C61.0255 39.5323 60.938 39.6911 60.8863 39.8629C60.8346 40.0347 60.8198 40.2157 60.8429 40.3943C60.8661 40.5728 60.9266 40.7448 61.0205 40.8992C61.1145 41.0536 61.2398 41.1869 61.3884 41.2905C61.537 41.3942 61.7055 41.4658 61.8831 41.5008C62.0607 41.5357 62.2433 41.5333 62.4192 41.4936C62.6113 41.5059 78.0889 39.7141 82.9595 45.7011C84.6178 47.7629 84.8183 50.5211 83.5587 54.152C83.4581 54.4317 83.4601 54.7385 83.5643 55.0187C83.6685 55.2988 83.8683 55.5344 84.1285 55.6839Z" fill="#32333D"/>
<path d="M32.7325 62.2055C48.886 70.664 58.2977 61.505 60.8572 58.3486C64.8444 60.5519 78.0289 67.3555 84.0634 64.3911C84.9396 63.9745 85.6905 63.3384 86.243 62.5447C86.7956 61.7509 87.1309 60.8266 87.2163 59.8616C87.3771 58.7597 87.2832 57.6336 86.9419 56.5687C86.6007 55.5038 86.0209 54.5281 85.2466 53.7154C79.7057 47.7162 64.3307 48.0881 63.6818 48.1079C63.5124 48.1136 63.346 48.1526 63.1923 48.2224C63.0385 48.2923 62.9003 48.3917 62.7857 48.515C62.671 48.6383 62.5821 48.7831 62.5239 48.9412C62.4658 49.0992 62.4396 49.2673 62.4469 49.4359C62.4542 49.6046 62.4948 49.7704 62.5664 49.9241C62.6379 50.0777 62.7391 50.216 62.864 50.3312C62.989 50.4464 63.1353 50.5361 63.2947 50.5953C63.454 50.6546 63.6232 50.6821 63.7927 50.6763C63.9399 50.6628 78.6127 50.2995 83.3531 55.4422C83.8666 55.9834 84.2509 56.6324 84.4771 57.3403C84.7033 58.0482 84.7656 58.7966 84.6592 59.529C84.6454 60.0763 84.486 60.609 84.1973 61.0728C83.9085 61.5365 83.5008 61.9148 83.0154 62.169C78.345 64.4617 65.7517 58.1178 61.2629 55.6445C60.9725 55.4813 60.6315 55.4337 60.3092 55.5113C59.9868 55.5889 59.7074 55.786 59.5275 56.0624C59.2116 56.6097 50.9908 68.8818 34.0048 60.0018C33.7076 59.8302 33.3551 59.7825 33.0249 59.8692C32.6946 59.9559 32.4136 60.1698 32.2438 60.464C32.0739 60.7582 32.0291 61.1085 32.1192 61.4379C32.2092 61.7672 32.4268 62.0487 32.7239 62.2203L32.7325 62.2055Z" fill="#32333D"/>
</svg>
